<?xml version="1.0" standalone="no"?>
<!DOCTYPE svg PUBLIC "-//W3C//DTD SVG 20010904//EN"
 "http://www.w3.org/TR/2001/REC-SVG-20010904/DTD/svg10.dtd">
<svg version="1.0" xmlns="http://www.w3.org/2000/svg"
 width="631.000000pt" height="640.000000pt" viewBox="0 0 631.000000 640.000000"
 preserveAspectRatio="xMidYMid meet">

<g transform="translate(0.000000,640.000000) scale(0.100000,-0.100000)"
fill="#000000" stroke="none">
<path d="M4060 4831 c-80 -16 -190 -87 -174 -112 10 -17 558 -557 602 -594 26
-22 36 -25 45 -16 9 9 -57 80 -293 311 l-305 300 25 20 c50 39 104 53 192 48
129 -8 157 -25 340 -206 88 -86 169 -174 181 -194 32 -59 66 -49 41 11 -22 52
-340 361 -406 394 -77 39 -170 53 -248 38z"/>
<path d="M3810 4750 c-7 -12 -9 -32 -6 -44 4 -17 0 -26 -18 -34 -12 -5 -31
-27 -41 -48 -16 -34 -16 -41 -3 -78 8 -23 22 -42 32 -44 14 -3 16 3 10 50 -5
46 -3 56 15 72 25 22 31 17 50 -37 l13 -38 -64 -67 c-34 -37 -67 -70 -71 -73
-5 -3 -12 -22 -16 -42 -8 -34 -7 -37 73 -114 56 -54 63 -59 21 -15 -48 50 -56
62 -39 62 12 0 33 9 48 21 34 27 48 17 30 -20 -28 -56 9 -115 72 -115 29 0 45
10 104 69 39 38 70 73 70 78 0 4 -7 10 -16 14 -11 4 -37 -15 -83 -61 -36 -36
-71 -66 -78 -66 -26 0 -36 29 -23 69 25 76 -35 117 -102 69 -11 -8 -21 -9 -27
-3 -7 7 15 36 61 83 l72 74 35 -20 c20 -11 52 -23 71 -27 54 -11 96 -48 115
-102 42 -121 73 -154 167 -178 66 -18 113 -64 123 -123 8 -49 27 -77 47 -69
13 5 13 13 -1 68 -22 87 -73 141 -156 164 -78 22 -111 54 -131 127 -21 73 -72
129 -134 147 -65 19 -110 42 -126 67 -14 21 -39 100 -52 163 -8 41 -26 50 -42
21z m-75 -430 c10 -11 16 -20 13 -20 -3 0 -13 9 -23 20 -10 11 -16 20 -13 20
3 0 13 -9 23 -20z"/>
<path d="M4450 4556 c0 -2 8 -10 18 -17 15 -13 16 -12 3 4 -13 16 -21 21 -21
13z"/>
<path d="M5028 4546 c-26 -8 -63 -23 -82 -34 -19 -12 -49 -20 -66 -20 -17 1
-34 -3 -38 -8 -4 -5 -23 -26 -41 -46 l-35 -38 24 -25 c29 -31 25 -40 -74 -163
-39 -48 -91 -114 -116 -147 -25 -33 -67 -88 -95 -122 -27 -34 -66 -83 -85
-108 -19 -26 -52 -68 -72 -93 -21 -26 -38 -49 -38 -52 0 -8 338 -344 349 -348
7 -2 138 101 415 327 112 92 228 181 236 181 4 0 15 -9 25 -20 26 -29 37 -25
84 25 31 33 41 53 41 78 0 18 6 41 14 52 19 28 46 122 46 162 0 49 -36 148
-75 206 -33 49 -34 52 -17 70 28 32 77 47 155 47 53 0 78 4 87 15 23 28 1 36
-78 30 -137 -11 -138 -11 -218 -87 -41 -39 -74 -77 -74 -84 0 -21 31 -17 58 9
23 22 24 22 39 2 8 -11 28 -47 44 -80 37 -77 40 -171 8 -240 l-21 -45 -90 85
c-84 80 -118 101 -118 72 0 -7 45 -57 100 -112 55 -55 100 -105 100 -112 0
-13 -50 -55 -61 -51 -13 5 -529 519 -529 527 0 13 48 53 59 50 5 -2 55 -48
110 -102 92 -90 121 -108 121 -74 0 7 -38 50 -85 97 -47 47 -85 87 -85 91 0 4
23 17 52 29 73 31 162 26 246 -16 47 -23 65 -28 72 -19 13 16 -12 38 -80 69
-69 31 -150 39 -212 22z m-171 -383 c20 -21 55 -68 79 -104 40 -63 106 -129
129 -129 21 0 105 -60 105 -75 0 -16 -30 -20 -45 -6 -6 5 -37 23 -70 41 -78
42 -97 61 -155 145 -26 39 -62 85 -79 103 -26 27 -30 36 -20 48 15 19 14 19
56 -23z m8 -275 l186 -183 -85 -67 c-46 -37 -89 -69 -94 -70 -9 -3 -342 317
-342 329 0 6 85 119 113 151 11 12 24 22 29 22 4 0 91 -82 193 -182z m-196
-190 c89 -87 161 -161 160 -165 -1 -12 -159 -135 -168 -131 -5 2 -74 66 -154
143 l-145 140 27 36 c86 117 104 140 111 137 5 -2 81 -74 169 -160z"/>
<path d="M4701 3874 c-32 -41 -25 -101 16 -143 8 -7 34 -16 58 -19 37 -4 47
-1 69 21 31 31 35 84 10 122 -31 48 -65 25 -37 -24 23 -40 9 -65 -39 -69 -29
-3 -36 1 -46 23 -16 35 -15 41 10 64 17 17 19 23 8 36 -17 21 -25 19 -49 -11z"/>
<path d="M3684 4458 l-29 -33 33 29 c30 28 37 36 29 36 -2 0 -16 -15 -33 -32z"/>
<path d="M3629 4463 c-13 -16 -12 -17 4 -4 9 7 17 15 17 17 0 8 -8 3 -21 -13z"/>
<path d="M4405 4379 c-8 -12 24 -51 36 -43 15 9 10 41 -7 48 -21 8 -22 8 -29
-5z"/>
<path d="M3630 4351 c5 -11 15 -23 21 -27 6 -3 3 5 -6 20 -20 30 -30 35 -15 7z"/>
<path d="M3680 4297 c0 -2 15 -16 33 -33 l32 -29 -29 33 c-28 30 -36 37 -36
29z"/>
<path d="M4050 4233 c0 -19 314 -328 333 -328 35 0 1 43 -143 183 -89 86 -169
158 -176 160 -8 2 -14 -4 -14 -15z"/>
<path d="M4541 4224 c0 -11 3 -14 6 -6 3 7 2 16 -1 19 -3 4 -6 -2 -5 -13z"/>
<path d="M5154 4226 c-9 -24 21 -55 38 -38 10 10 8 17 -9 34 -21 20 -23 20
-29 4z"/>
<path d="M3780 4195 c19 -19 36 -35 39 -35 3 0 -10 16 -29 35 -19 19 -36 35
-39 35 -3 0 10 -16 29 -35z"/>
<path d="M3860 4115 c19 -19 36 -35 39 -35 3 0 -10 16 -29 35 -19 19 -36 35
-39 35 -3 0 10 -16 29 -35z"/>
<path d="M3165 4103 c-107 -15 -320 -94 -416 -153 -27 -16 -52 -30 -55 -30 -9
0 -81 -51 -199 -142 -103 -79 -312 -289 -396 -398 -115 -149 -217 -306 -283
-437 -28 -56 -49 -73 -91 -73 -34 0 -65 35 -103 114 -17 35 -41 73 -53 85 -26
24 -76 28 -102 9 -10 -7 -47 -89 -83 -183 -68 -175 -87 -204 -134 -205 -27 0
-70 25 -70 41 0 5 -9 28 -19 52 -116 255 -135 325 -97 356 7 6 84 40 172 77
87 36 173 72 189 79 17 8 82 35 145 60 63 25 123 56 133 67 23 27 22 79 -3
106 -41 44 -49 42 -495 -142 -115 -48 -266 -110 -335 -138 -172 -71 -259 -107
-297 -124 -17 -8 -35 -14 -40 -14 -21 0 -53 -48 -53 -79 0 -41 38 -81 77 -81
15 0 66 16 113 35 96 39 149 44 173 17 9 -10 53 -106 98 -213 44 -107 96 -232
116 -279 41 -98 62 -125 118 -151 46 -21 75 -23 128 -8 64 17 100 64 136 175
35 109 60 144 103 144 37 0 63 -28 111 -118 44 -84 72 -107 120 -98 40 8 48
21 107 191 118 340 343 698 605 960 284 286 551 424 815 425 321 0 552 -206
577 -515 7 -79 7 -79 15 -35 10 53 -5 186 -29 256 -61 181 -211 313 -405 359
-59 14 -220 18 -293 8z"/>
<path d="M3955 4020 c10 -11 20 -20 23 -20 3 0 -3 9 -13 20 -10 11 -20 20 -23
20 -3 0 3 -9 13 -20z"/>
<path d="M4042 3942 c2 -4 30 -32 63 -62 l60 -54 -60 62 c-57 59 -71 71 -63
54z"/>
<path d="M4200 3836 c0 -2 8 -10 18 -17 15 -13 16 -12 3 4 -13 16 -21 21 -21
13z"/>
<path d="M4207 3780 c36 -37 45 -42 55 -31 11 11 10 13 0 6 -9 -5 -29 6 -55
31 l-42 39 42 -45z"/>
<path d="M3991 3321 c-34 -22 -37 -509 -6 -876 27 -313 81 -631 111 -655 7 -7
14 -11 15 -9 0 2 2 117 4 254 4 267 37 582 74 710 5 17 12 42 15 58 6 25 10
27 59 27 29 0 70 9 92 19 51 23 140 95 215 173 l57 60 1 -31 c1 -48 11 -69 35
-77 12 -5 117 -8 232 -8 155 -1 219 -5 246 -15 l36 -14 -102 -101 c-158 -155
-236 -281 -243 -393 -5 -75 11 -107 66 -130 115 -48 304 74 392 253 29 59 35
82 38 157 5 99 -8 138 -62 195 l-31 33 35 30 c19 16 84 64 144 107 125 89 165
121 150 122 -18 0 -262 -169 -325 -228 -25 -22 -29 -23 -55 -9 -45 23 -172 37
-328 37 -172 0 -186 7 -140 67 43 58 78 90 139 124 30 17 58 35 61 41 12 19
-7 57 -34 71 -56 27 -132 -26 -217 -153 -66 -99 -219 -241 -304 -282 -40 -19
-141 -38 -141 -25 0 2 19 24 43 48 115 117 194 251 205 347 6 51 -11 72 -58
72 -60 0 -119 -110 -195 -362 -14 -49 -30 -88 -34 -88 -5 0 -8 -19 -8 -42 0
-24 -5 -68 -11 -98 -45 -215 -61 -382 -63 -650 -1 -209 -2 -213 -14 -140 -64
379 -76 975 -26 1290 13 78 -20 121 -68 91z m364 -186 c-24 -67 -96 -195 -110
-195 -5 0 25 80 61 160 27 60 66 121 73 115 2 -3 -9 -38 -24 -80z m879 -240
c80 -74 75 -227 -12 -361 -53 -81 -113 -138 -177 -169 -209 -98 -242 97 -58
340 47 61 199 215 212 215 5 0 20 -11 35 -25z"/>
<path d="M2329 3248 c-52 -37 -57 -43 -112 -128 -62 -96 -72 -119 -113 -256
-20 -71 -22 -92 -15 -156 19 -168 107 -237 229 -178 95 46 342 285 492 476 24
31 100 144 100 149 0 17 -32 0 -51 -27 -13 -18 -26 -35 -30 -38 -3 -3 -28 -32
-54 -65 -67 -84 -340 -360 -400 -404 -98 -73 -154 -79 -192 -22 -13 20 -23 49
-23 70 0 34 4 38 49 59 67 30 134 107 207 238 74 132 92 188 75 244 -16 53
-35 70 -80 70 -27 0 -51 -9 -82 -32z m55 -105 c-14 -32 -35 -74 -48 -93 -28
-41 -136 -153 -143 -147 -6 7 60 138 96 190 28 42 97 106 113 107 4 0 -4 -26
-18 -57z"/>
<path d="M3173 3251 c-84 -61 -160 -175 -206 -311 -47 -138 -49 -153 -38 -235
31 -218 150 -257 328 -106 164 138 345 334 447 484 49 73 51 77 36 77 -12 0
-28 -17 -110 -116 -108 -132 -399 -418 -460 -453 -102 -57 -156 -34 -174 75
l-7 40 42 13 c55 17 141 103 195 196 95 162 121 231 110 287 -15 81 -89 103
-163 49z m74 -58 c-2 -5 -21 -42 -41 -83 -24 -50 -57 -97 -102 -143 -36 -38
-68 -66 -71 -63 -3 3 14 45 38 93 42 85 140 203 169 203 6 0 9 -3 7 -7z"/>
<path d="M1859 2484 c-30 -78 -40 -94 -64 -110 -31 -20 -69 -8 -116 40 -18 17
-28 24 -23 15 16 -28 60 -76 80 -87 33 -17 83 -6 116 24 27 27 84 122 76 129
-2 2 -15 6 -30 10 -24 6 -29 3 -39 -21z"/>
<path d="M4230 2115 c0 -67 3 -85 14 -85 9 0 16 12 18 33 3 29 6 32 37 33 19
0 36 5 39 12 2 8 -10 12 -37 12 -37 0 -41 2 -41 25 0 23 4 25 45 25 33 0 45 4
45 15 0 12 -13 15 -60 15 l-60 0 0 -85z"/>
<path d="M4780 2115 c0 -69 3 -85 15 -85 11 0 15 11 15 36 0 34 1 35 32 32 18
-2 33 2 35 10 3 8 -7 12 -31 12 -32 0 -36 3 -36 25 0 23 4 25 46 25 69 0 52
24 -19 28 l-57 3 0 -86z"/>
<path d="M5290 2175 c0 -21 -3 -24 -27 -19 -41 8 -65 -15 -65 -60 0 -47 23
-66 80 -63 l42 1 0 83 c0 67 -3 83 -15 83 -9 0 -15 -9 -15 -25z m-5 -80 c0
-23 -5 -31 -21 -33 -27 -4 -47 21 -39 48 5 16 14 20 33 18 23 -2 27 -8 27 -33z"/>
<path d="M4620 2166 c0 -8 -6 -17 -12 -20 -10 -5 -10 -7 0 -12 6 -3 12 -22 12
-43 0 -20 5 -42 12 -49 17 -17 58 -15 58 3 0 8 -9 15 -20 15 -16 0 -20 7 -20
35 0 24 5 35 15 35 8 0 15 5 15 10 0 6 -7 10 -15 10 -8 0 -15 7 -15 15 0 8 -7
15 -15 15 -8 0 -15 -6 -15 -14z"/>
<path d="M4383 2153 c-25 -10 -13 -28 19 -28 46 0 47 -23 1 -27 -30 -2 -39 -7
-41 -25 -4 -27 20 -41 71 -41 l37 0 0 48 c0 67 -34 95 -87 73z m45 -89 c-9 -9
-21 -13 -27 -10 -20 13 -11 26 16 26 25 0 26 -1 11 -16z"/>
<path d="M4513 2150 c-13 -5 -23 -13 -23 -17 0 -19 33 -53 51 -53 10 0 19 -5
19 -11 0 -7 -12 -9 -30 -7 -34 5 -51 -9 -29 -23 21 -13 62 -10 82 6 29 21 17
48 -26 58 -47 11 -48 27 -2 27 36 0 47 13 19 24 -20 8 -34 7 -61 -4z"/>
<path d="M4932 2144 c-34 -23 -27 -83 11 -104 24 -13 30 -13 55 0 36 20 42 70
13 99 -25 25 -49 27 -79 5z m63 -49 c0 -25 -4 -30 -24 -30 -32 0 -49 28 -31
50 7 9 23 15 34 13 16 -2 21 -10 21 -33z"/>
<path d="M5070 2140 c-29 -29 -26 -76 5 -96 39 -26 89 -7 100 38 5 21 1 33
-19 52 -30 31 -59 33 -86 6z m73 -32 c8 -12 7 -21 -2 -32 -29 -35 -69 -8 -55
36 7 23 42 21 57 -4z"/>
</g>
</svg>
